<?xml version="1.0" encoding="UTF-8" standalone="no"?>
<svg width="271px" height="140px" viewBox="0 0 271 140" version="1.1" xmlns="http://www.w3.org/2000/svg" xmlns:xlink="http://www.w3.org/1999/xlink" xmlns:sketch="http://www.bohemiancoding.com/sketch/ns">
    <!-- Generator: Sketch 3.2.2 (9983) - http://www.bohemiancoding.com/sketch -->
    <title>Island 1</title>
    <desc>Created with Sketch.</desc>
    <defs>
        <linearGradient x1="50%" y1="12.4520631%" x2="50%" y2="100%" id="linearGradient-1">
            <stop stop-color="#242424" offset="0%"></stop>
            <stop stop-color="#515151" offset="100%"></stop>
        </linearGradient>
        <linearGradient x1="50%" y1="93.7981291%" x2="50%" y2="0%" id="linearGradient-2">
            <stop stop-color="#6D6D6D" offset="0%"></stop>
            <stop stop-color="#363636" offset="100%"></stop>
        </linearGradient>
        <linearGradient x1="50%" y1="0%" x2="50%" y2="97.2138074%" id="linearGradient-3">
            <stop stop-color="#776B6B" offset="0%"></stop>
            <stop stop-color="#9F9C92" offset="100%"></stop>
        </linearGradient>
        <linearGradient x1="50%" y1="-36.8926413%" x2="50%" y2="100%" id="linearGradient-4">
            <stop stop-color="#087C00" offset="0%"></stop>
            <stop stop-color="#2CD300" offset="100%"></stop>
        </linearGradient>
    </defs>
    <g id="Welcome" stroke="none" stroke-width="1" fill="none" fill-rule="evenodd" sketch:type="MSPage">
        <g id="Desktop-3" sketch:type="MSArtboardGroup" transform="translate(-753.000000, -1060.000000)">
            <g id="Island-1-+-Group-29" sketch:type="MSLayerGroup" transform="translate(753.000000, 834.000000)">
                <g id="Island-1" transform="translate(0.000000, 225.546875)" sketch:type="MSShapeGroup">
                    <path d="M122.785638,85.21875 L122.785638,126.535739 L161.6997,139.335937 L161.6997,228.395225 L177.160165,228.395225 L177.160165,93.2582639 L186.507886,93.2582626 L186.507886,220.170822 L199.798547,220.170822 L199.798544,93.2582639 L216.465016,93.2582639 L216.465016,150.628388 L229.357155,195.669104 L229.357156,60.3515625 L168.1372,60.3515625 L122.785638,85.21875 Z" id="Path-404" fill="url(#linearGradient-1)" transform="translate(176.071397, 144.373394) scale(-1, 1) translate(-176.071397, -144.373394) "></path>
                    <path d="M57.78576,67.5 L64.613885,118.90625 L89.3840985,118.90625 L89.3840985,100.6161 L105.642741,100.6161 L105.642741,165.365522 L135.804697,165.365522 L135.804697,127.911983 L162.222978,127.911983 L162.222978,111.221616 L181.503362,111.221616 L196.354907,96.3700713 L229.357156,96.3700714 L229.357156,72.993674 L117.051385,45.984375 L57.78576,67.5 Z" id="Path-403" fill="url(#linearGradient-2)" transform="translate(143.571458, 105.674949) scale(-1, 1) translate(-143.571458, -105.674949) "></path>
                    <path d="M20.5655627,43.5419922 L45.7421875,77.4609375 L73.7109375,76.234375 L73.7109375,89.6953125 L106.515625,89.6953125 L127.742187,101.742188 L156.378906,101.742188 L156.378906,89.6953125 L211.269531,89.6953125 L211.269531,76.234375 L257.375,76.234375 L257.375,57.2265625 L201.265625,35.578125 L149.664062,18.9609375 L91.6796875,22.6328125 L20.5655627,43.5419922 Z" id="Path-402" fill="url(#linearGradient-3)"></path>
                    <path d="M0.169085741,46.5390625 L28.8828125,13.484375 L78.8125,0.921875 L145.875,5.171875 L219.382812,11.296875 L263.898437,44.6015625 L270.992065,85.7084732 L244.968628,86.0990982 L228.21875,67.1484375 L205.601562,76.8125 L183.316406,59.359375 L146.90625,67.1484375 L128.558594,46.5390625 L103.9375,53.75 L78.8125,46.5390625 L58.90625,55.4296875 L34.7226562,46.5390625 L18.3828125,59.359375 L0.169085741,46.5390625 Z" id="Path-401" fill="url(#linearGradient-4)"></path>
                </g>
            </g>
        </g>
    </g>
</svg>