<?xml version="1.0" encoding="UTF-8" standalone="no"?>
<svg width="512px" height="249px" viewBox="0 0 512 249" version="1.1" xmlns="http://www.w3.org/2000/svg" xmlns:xlink="http://www.w3.org/1999/xlink" xmlns:sketch="http://www.bohemiancoding.com/sketch/ns">
    <!-- Generator: Sketch 3.2.2 (9983) - http://www.bohemiancoding.com/sketch -->
    <title>Island 2</title>
    <desc>Created with Sketch.</desc>
    <defs>
        <linearGradient x1="50%" y1="12.4520631%" x2="50%" y2="100%" id="linearGradient-1">
            <stop stop-color="#242424" offset="0%"></stop>
            <stop stop-color="#515151" offset="100%"></stop>
        </linearGradient>
        <linearGradient x1="50%" y1="93.7981291%" x2="50%" y2="0%" id="linearGradient-2">
            <stop stop-color="#6D6D6D" offset="0%"></stop>
            <stop stop-color="#363636" offset="100%"></stop>
        </linearGradient>
        <linearGradient x1="50%" y1="0%" x2="50%" y2="97.2138074%" id="linearGradient-3">
            <stop stop-color="#776B6B" offset="0%"></stop>
            <stop stop-color="#9F9C92" offset="100%"></stop>
        </linearGradient>
        <linearGradient x1="50%" y1="-36.8926413%" x2="50%" y2="100%" id="linearGradient-4">
            <stop stop-color="#087C00" offset="0%"></stop>
            <stop stop-color="#2CD300" offset="100%"></stop>
        </linearGradient>
    </defs>
    <g id="Welcome" stroke="none" stroke-width="1" fill="none" fill-rule="evenodd" sketch:type="MSPage">
        <g id="Desktop-3" sketch:type="MSArtboardGroup" transform="translate(-254.000000, -564.000000)">
            <g id="Island-2" sketch:type="MSLayerGroup" transform="translate(510.000000, 688.500000) scale(-1, 1) translate(-510.000000, -688.500000) translate(254.000000, 564.000000)">
                <path d="M47.1427464,123.897842 L47.1427464,148.263474 L87.6142379,148.263474 L87.6142379,162.589145 L131.419477,162.589145 L131.419477,215.190554 L149.265276,215.190554 L149.265276,174.608821 L179.062515,174.608821 L179.062515,207.004171 L211.473677,207.004171 L211.473677,248.697976 L226.522292,248.697976 L226.522293,158.265626 L243.328186,143.207033 L243.328186,233.527338 L250.419464,233.527338 L250.419464,128.343751 L256.780793,128.343751 L256.780793,179.14258 L264.230011,179.14258 L264.230011,128.343751 L264.230011,115.859735 L275.444855,115.859735 L275.444855,187.878282 L291.292511,187.878282 L291.292512,136.503909 L378.180832,136.503908 L378.180832,115.859734 L395.628333,98.4122326 L395.628333,63.6910922 C395.628333,63.6910922 243.328181,70.7773115 243.328191,63.6910922 C243.328202,56.6048729 49.9786839,76.1908105 49.9786839,76.1908105 L47.1427464,123.897842 Z" id="Path-34" fill="url(#linearGradient-1)" sketch:type="MSShapeGroup" transform="translate(221.385540, 155.421960) scale(-1, 1) translate(-221.385540, -155.421960) "></path>
                <path d="M66.8783329,62.617405 L98.4397965,131.227696 L150.335028,132.629712 L171.275919,152.275643 L214.55159,152.275643 L214.55159,165.533154 L248.444654,165.533154 L248.444654,182.071526 L285.518368,182.071526 L285.518363,153.034195 L348.715684,112.681619 L348.715684,153.034193 L411.941089,153.034193 L411.941089,100.091036 L443.628333,100.091036 L443.628333,44.8906253 L163.34119,62.6174049 L66.8783329,62.617405 Z" id="Path-407" fill="url(#linearGradient-2)" sketch:type="MSShapeGroup" transform="translate(255.253333, 113.481076) scale(-1, 1) translate(-255.253333, -113.481076) "></path>
                <path d="M414.867925,117.045604 L366.943417,96.3884199 L328.193417,106.621094 L303.197324,84.9031103 L266.377011,96.3884199 L219.705136,61.0117185 L182.498105,68.2890623 L147.455136,88.9374998 L89.8574799,68.2890623 L52.15351,79.0233076 L23.1152924,49.3286378 L161.084288,25.2462843 L259.707867,26.5243357 L424.572324,37.3437498 L467.929209,84.9031118 L414.867925,117.045604 Z" id="Path-402" fill="url(#linearGradient-3)" sketch:type="MSShapeGroup"></path>
                <path d="M0.068417522,47.84375 L51.4271925,13.484375 L142.884621,0.921875 L265.724641,5.171875 L417.986735,5.171875 L486.107565,38.2265625 L511.129655,67.1484375 L462.448984,83.7734375 L417.986735,55.4296875 L388.462949,76.8125 L342.720761,76.8125 L314.037168,55.4296875 L267.613607,67.1484375 L243.365293,55.4296875 L216.435605,59.703125 L176.330136,47.84375 L149.51373,59.703125 L119.185605,47.84375 L92.6270113,67.1484375 L64.9082613,55.4296875 L33.1660738,76.8125 L0.068417522,47.84375 Z" id="Path-401" fill="url(#linearGradient-4)" sketch:type="MSShapeGroup"></path>
            </g>
        </g>
    </g>
</svg>