<?xml version="1.0" encoding="UTF-8" standalone="no"?>
<svg width="204px" height="390px" viewBox="0 0 204 390" version="1.1" xmlns="http://www.w3.org/2000/svg" xmlns:xlink="http://www.w3.org/1999/xlink" xmlns:sketch="http://www.bohemiancoding.com/sketch/ns">
    <!-- Generator: Sketch 3.2.2 (9983) - http://www.bohemiancoding.com/sketch -->
    <title>Tree 1</title>
    <desc>Created with Sketch.</desc>
    <defs>
        <linearGradient x1="50%" y1="12.4520631%" x2="50%" y2="100%" id="linearGradient-1">
            <stop stop-color="#242424" offset="0%"></stop>
            <stop stop-color="#515151" offset="100%"></stop>
        </linearGradient>
        <linearGradient x1="50%" y1="93.7981291%" x2="50%" y2="0%" id="linearGradient-2">
            <stop stop-color="#6D6D6D" offset="0%"></stop>
            <stop stop-color="#363636" offset="100%"></stop>
        </linearGradient>
        <linearGradient x1="50%" y1="0%" x2="50%" y2="97.2138074%" id="linearGradient-3">
            <stop stop-color="#776B6B" offset="0%"></stop>
            <stop stop-color="#9F9C92" offset="100%"></stop>
        </linearGradient>
        <linearGradient x1="50%" y1="-36.8926413%" x2="50%" y2="100%" id="linearGradient-4">
            <stop stop-color="#087C00" offset="0%"></stop>
            <stop stop-color="#2CD300" offset="100%"></stop>
        </linearGradient>
        <linearGradient x1="50%" y1="0%" x2="50%" y2="97.0822704%" id="linearGradient-5">
            <stop stop-color="#1E89C1" offset="0%"></stop>
            <stop stop-color="#20A0DA" offset="100%"></stop>
        </linearGradient>
        <linearGradient x1="50%" y1="0%" x2="50%" y2="100%" id="linearGradient-6">
            <stop stop-color="#277B37" offset="0%"></stop>
            <stop stop-color="#1DCA05" offset="100%"></stop>
        </linearGradient>
        <linearGradient x1="50%" y1="0%" x2="50%" y2="97.5087691%" id="linearGradient-7">
            <stop stop-color="#337933" offset="0%"></stop>
            <stop stop-color="#1D5A18" offset="100%"></stop>
        </linearGradient>
        <linearGradient x1="50%" y1="1.8096301%" x2="50%" y2="98.6607143%" id="linearGradient-8">
            <stop stop-color="#905110" offset="0%"></stop>
            <stop stop-color="#BD740F" offset="100%"></stop>
        </linearGradient>
        <linearGradient x1="50%" y1="0%" x2="50%" y2="98.6427774%" id="linearGradient-9">
            <stop stop-color="#282207" offset="0%"></stop>
            <stop stop-color="#694327" offset="100%"></stop>
        </linearGradient>
    </defs>
    <g id="Welcome" stroke="none" stroke-width="1" fill="none" fill-rule="evenodd" sketch:type="MSPage">
        <g id="Desktop-3" sketch:type="MSArtboardGroup" transform="translate(-409.000000, -346.000000)">
            <g id="Tree-1" sketch:type="MSLayerGroup" transform="translate(409.614616, 345.567395)">
                <g id="Tree" transform="translate(101.522909, 195.391592) scale(-1, 1) translate(-101.522909, -195.391592) translate(-0.000000, 0.277250)" sketch:type="MSShapeGroup">
                    <path d="M52.4982503,226.626347 L58.040701,230.161834 L58.040701,242.430037 L71.471854,248.586576 L71.471854,230.8029 L76.0991283,229.896293 L78.5442109,225.296746 L90.6449811,225.296746 L90.6449811,278.986553 L95.5470616,278.986553 L95.5470616,229.075462 L114.258509,229.075462 L114.258509,328.586368 L120.653486,328.586368 L120.653486,246.864403 L144.501006,246.864403 L144.501006,256.802275 L149.127503,256.802275 L149.127503,260.456734 L153.903758,260.456734 L153.903758,264.945334 L161.881855,264.945334 L161.881855,244.882514 L170.895804,244.882514 L170.895804,213.338762 C170.895804,213.338762 113.605547,195.563756 113.605549,195.563757 C113.605551,195.563758 48.4066408,200.444019 48.4066408,200.444019 L52.9390372,222.84239 L52.4982503,226.626347 Z" id="Path-395" fill="url(#linearGradient-1)"></path>
                    <path d="M25.0172615,211.454481 L32.0421794,229.050356 L39.7035906,229.050356 L39.7035906,221.451934 L48.6047041,221.451934 L48.6047041,232.14487 L54.4943041,232.14487 L66.4176291,213.535183 L79.4120214,213.535183 L79.4120214,254.348609 L91.3529808,254.348609 L93.6554933,232.413241 L101.267468,224.530471 L108.282509,224.530471 L108.282509,312.169457 L116.524286,312.169457 L116.524286,252.396148 L124.575806,238.074952 L131.720806,238.074952 L145.26594,225.077363 L169.309427,225.077363 L184.105662,210.879247 C184.105662,210.879247 136.245783,197.331501 136.245788,197.3315 C136.245793,197.3315 85.9605023,188.291731 85.9605002,188.291731 C85.9604981,188.291731 46.6296568,193.687901 46.6296568,193.687901 L25.0172615,211.454481 Z" id="Path-394" fill="url(#linearGradient-2)"></path>
                    <path d="M10.31514,200.476263 L12.1889785,213.034449 L27.7548842,218.227669 L40.4527101,215.084804 L51.6008635,207.217207 L63.3044479,206.653881 L70.7859658,209.56345 L79.1312679,203.493945 L94.8276307,210.673032 L94.8276307,200.934665 L102.985734,200.934665 L102.985734,219.864132 L112.32344,219.864132 L112.32344,209.854111 L120.245933,209.854111 L134.908071,220.854627 L143.38535,207.826055 L150.963722,214.927376 L164.590561,210.875981 L178.316231,217.867292 L195.724349,218.11766 L197.92433,207.513096 L148.259702,190.527964 C148.259702,190.527964 70.6840522,184.115153 68.4061118,184.115153 C66.1281714,184.115153 10.31514,200.476263 10.31514,200.476263 Z" id="Path-393" fill="url(#linearGradient-3)"></path>
                    <path d="M0.240292822,208.905288 L0.631664165,191.09129 L10.6729087,184.115153 L63.3854895,175.263158 L117.3216,173.979079 L154.011675,180.346369 L194.012594,193.124575 C194.012594,193.124575 200.254765,202.805436 200.254769,205.855362 C200.254773,208.905288 199.782356,219.807637 199.782356,219.807637 L194.435591,212.425602 L181.672536,216.975834 L171.811165,206.075382 L149.497068,196.830766 L131.845825,204.072445 L127.443886,194.922666 L109.318254,193.968615 L85.4880873,197.363745 L77.3720735,209.07789 L63.6958193,199.114418 L43.7773898,196.049317 L27.1184117,198.691449 L25.4244458,206.120903 L18.1880292,200.536958 L6.66234078,202.414711 L0.240292822,208.905288 Z" id="Path-392" fill="url(#linearGradient-4)"></path>
                    <path d="M153.056312,177.61847 L153.056312,389.955947 L181.386281,299.023748 L181.38628,182.051196 L153.056312,177.61847 Z" id="Path-396" fill="url(#linearGradient-5)"></path>
                    <path d="M14.2164782,85.2252779 L34.0542014,95.7665879 L50.2229514,94.5089647 L61.5766574,93.4230703 L65.3410291,84.2349319 L76.5451916,89.1853707 L94.117846,78.4529639 L105.844122,89.792232 L117.81405,88.8664457 L120.96091,97.5445624 L134.100114,92.1886886 L144.189146,100.653758 L174.975777,105.774635 L179.930051,98.0545842 L190.199566,104.891458 L199.82063,93.9769926 L203.040973,56.221181 L177.421329,29.3682137 L139.490128,15.0579076 L123.820286,28.4953664 L110.407778,4.55533339 L81.057281,0.210464666 L54.8098125,8.2713905 L35.2273447,18.396936 L31.8355426,29.8743619 L21.0671191,30.0447995 L10.9252313,39.2871681 L3.02649658,62.0935325 L14.2164782,85.2252779 Z" id="Path-399" fill="url(#linearGradient-6)"></path>
                    <path d="M5.62533628,68.2858031 L27.0680741,80.1363841 L61.0647338,70.3827026 L76.6288638,53.1233088 L96.6676973,40.6013068 L108.520311,44.1895356 L123.383134,44.4555217 L127.86944,58.1486369 L145.813375,65.5381417 L169.180841,63.4192919 L184.127459,76.739252 L188.879334,90.9320595 L202.614134,100.535962 L192.780358,112.248386 L183.096125,105.189427 L178.779989,112.952087 L146.334199,106.977731 L136.93745,98.8754866 L123.691245,105.040939 L120.438673,95.5429142 L107.936318,96.5332602 L97.5391751,85.4806372 L79.8066639,96.3731521 L68.209305,91.5815302 L65.1900727,100.03627 L36.4338825,103.166125 L15.8200799,91.9650149 L5.62533628,68.2858031 Z" id="Path-400" fill="url(#linearGradient-7)"></path>
                    <path d="M41.5837333,180.292437 L51.7103258,183.991624 L62.9205031,186.70287 L97.8953981,183.991626 L114.916207,181.148827 L118.035617,176.907655 L125.399665,175.822369 L134.168836,186.247706 L137.569322,185.21767 L128.05602,162.561794 L123.348635,162.412047 L113.835332,166.027153 L112.545538,171.179967 L100.790253,178.577026 L74.7148569,174.603217 L64.3137149,171.305259 L58.1966854,167.707688 L58.1966851,157.642156 L69.5250716,143.311097 L53.6817934,132.930486 L36.2761384,132.930486 L27.8924749,143.311098 L22.401112,157.642156 L19.4480492,175.822368 L16.4153252,186.247706 L27.8924751,193.602668 L40.0456996,192.126677 L63.739743,195.314099 L73.9963656,198.634421 L73.4447225,202.48489 L78.9677214,198.395 L74.4954714,192.309496 L59.7324494,190.855869 L36.2761379,186.247707 L33.3734441,181.148828 L41.5837333,180.292437 Z" id="Path-397" fill="url(#linearGradient-8)"></path>
                    <path d="M36.4332379,133.01702 L50.0515164,126.855218 L66.7812299,122.994226 L106.942166,123.569099 L104.136667,115.910257 L90.0776464,109.520873 L73.8750984,105.203402 L64.3434925,108.478997 L56.9895636,101.080624 L53.9029888,92.03393 L41.8154361,87.0981735 L58.2241936,90.5579388 L61.5393064,98.3141276 L65.968213,100.76622 L74.5029209,99.2481327 L93.4361026,103.61954 L115.574068,110.995549 L119.267451,122.299642 L133.737577,121.648469 L143.225839,127.09464 L150.059647,116.571954 L153.622999,102.610551 L146.820714,93.3349596 L128.495653,86.5548719 L115.487382,79.4393317 L110.072084,64.1216481 L107.743362,54.1199005 L100.302747,52.8293949 L94.3568213,52.8938544 L90.1538257,42.9039464 L96.6303792,50.1063096 L104.873504,49.4775006 L112.097403,51.0718867 L114.620514,56.2247008 L118.693479,50.4970132 L126.578036,47.8936384 L121.08656,54.3698456 L117.816104,61.3117398 C117.816104,61.3117398 117.133119,68.939009 117.133117,68.9390096 C117.133115,68.9390102 120.869843,76.4557774 120.869843,76.4557774 L133.878114,83.7568031 L152.702281,90.6342378 L158.82158,95.9067624 L169.490621,94.3229002 L172.382808,83.7673271 L174.352962,99.5191258 L161.204153,101.167447 L156.35232,113.284519 L155.063839,124.924064 L146.929729,133.017021 L141.417238,135.934801 L133.196441,126.855219 L120.848828,129.545416 L99.0831062,131.010886 L79.7821624,134.449604 L65.968212,147.557344 L53.0151059,137.356856 L40.7541797,143.572594 L44.6104282,134.449601 L36.4332379,133.01702 Z" id="Path-398" fill="url(#linearGradient-9)"></path>
                </g>
            </g>
        </g>
    </g>
</svg>